<?xml version="1.0" encoding="utf-8"?>
<!-- Generator: Adobe Illustrator 15.0.2, SVG Export Plug-In . SVG Version: 6.00 Build 0)  -->
<!DOCTYPE svg PUBLIC "-//W3C//DTD SVG 1.1//EN" "http://www.w3.org/Graphics/SVG/1.1/DTD/svg11.dtd">
<svg version="1.1"
	 id="svg2816" inkscape:version="0.47 r22583" sodipodi:docname="radikke_default.svg" inkscape:export-filename="/Users/saiten/Default.png" inkscape:export-xdpi="90" inkscape:export-ydpi="90" xmlns:inkscape="http://www.inkscape.org/namespaces/inkscape" xmlns:sodipodi="http://sodipodi.sourceforge.net/DTD/sodipodi-0.dtd" xmlns:rdf="http://www.w3.org/1999/02/22-rdf-syntax-ns#" xmlns:svg="http://www.w3.org/2000/svg" xmlns:cc="http://creativecommons.org/ns#" xmlns:dc="http://purl.org/dc/elements/1.1/"
	 xmlns="http://www.w3.org/2000/svg" xmlns:xlink="http://www.w3.org/1999/xlink" x="0px" y="0px" width="320px" height="480px"
	 viewBox="0 0 320 480" enable-background="new 0 0 320 480" xml:space="preserve">
<linearGradient id="SVGID_1_" gradientUnits="userSpaceOnUse" x1="160.0005" y1="480" x2="160.0005" y2="4.882812e-04">
	<stop  offset="0" style="stop-color:#666666"/>
	<stop  offset="1" style="stop-color:#1A1A1A"/>
</linearGradient>
<rect fill="url(#SVGID_1_)" stroke="#000000" stroke-miterlimit="10" width="320" height="480"/>
<g id="layer1" transform="translate(0,416)" inkscape:label="Layer 1" inkscape:groupmode="layer">
	<g id="g4467" transform="matrix(1.1564074,0,0,1.1605568,-23.537133,36.478568)">
		<path id="path2828" fill="none" stroke="#FFFFFF" stroke-width="9.403" stroke-linejoin="round" d="M158.607-269
			c-35.61,0-64.478,24.658-64.478,55.075c0,30.417,28.868,55.075,64.478,55.075c0.668,0,1.352-0.066,2.015-0.084
			c15.292,24.763,41.977,16.287,41.977,16.287s-22.499-2.827-19.142-20.485c23.274-8.31,39.627-27.899,39.627-50.793
			C223.085-244.342,194.218-269,158.607-269L158.607-269z"/>
		
			<path id="path3727" sodipodi:nodetypes="ccc" fill="none" stroke="#FFFFFF" stroke-width="8.0651" stroke-linecap="round" stroke-linejoin="round" d="
			M138.11-183.33l19.382-41.991l21.227,41.497"/>
		<path id="path3731" fill="none" stroke="#FFFFFF" stroke-width="4.0326" d="M150.988-210.328
			c13.644,0.086,13.644,0.086,13.644,0.086"/>
		<path id="path3746" fill="none" stroke="#FFFFFF" stroke-width="4.0326" d="M147.189-203.289
			c21.588,0.172,21.588,0.172,21.588,0.172"/>
		<path id="path3748" fill="none" stroke="#FFFFFF" stroke-width="4.0326" d="M144.167-195.518
			c27.805-0.086,27.805-0.086,27.805-0.086l0,0l0,0"/>
		<path id="path3750" fill="none" stroke="#FFFFFF" stroke-width="4.0326" d="M140.454-188.178
			c35.231,0.173,35.231,0.173,35.231,0.173"/>
		
			<path id="path3752" sodipodi:type="arc" sodipodi:ry="3.1176982" sodipodi:rx="3.1819806" sodipodi:cy="18.873732" sodipodi:cx="28.798531" fill="#FFFFFF" stroke="#FFFFFF" stroke-width="1.5" stroke-linecap="round" stroke-linejoin="round" d="
			M166.358-231.005c0,4.626-3.827,8.376-8.548,8.376s-8.549-3.75-8.549-8.376c0-4.626,3.828-8.376,8.549-8.376
			S166.358-235.631,166.358-231.005z"/>
		
			<path id="path3776" sodipodi:end="7.3303829" sodipodi:type="arc" sodipodi:ry="6.5454545" sodipodi:rx="6.5454545" sodipodi:cy="20.181818" sodipodi:cx="42.363636" sodipodi:open="true" sodipodi:start="5.2359878" fill="none" stroke="#FFFFFF" stroke-width="2" stroke-linecap="round" stroke-linejoin="round" d="
			M183.52-216.037c8.41-4.856,11.292-15.611,6.437-24.022c-1.544-2.673-3.764-4.893-6.437-6.437"/>
		
			<path id="path3776-7" sodipodi:end="7.3303829" sodipodi:type="arc" sodipodi:ry="6.5454545" sodipodi:rx="6.5454545" sodipodi:cy="20.181818" sodipodi:cx="42.363636" sodipodi:open="true" sodipodi:start="5.2359878" fill="none" stroke="#FFFFFF" stroke-width="2" stroke-linecap="round" stroke-linejoin="round" d="
			M175.3-218.709c6.729-3.885,9.034-12.489,5.15-19.217c-1.235-2.139-3.011-3.914-5.15-5.149"/>
		
			<path id="path3776-9" sodipodi:end="7.3303829" sodipodi:type="arc" sodipodi:ry="6.5454545" sodipodi:rx="6.5454545" sodipodi:cy="20.181818" sodipodi:cx="42.363636" sodipodi:open="true" sodipodi:start="5.2359878" fill="none" stroke="#FFFFFF" stroke-width="2" stroke-linecap="round" stroke-linejoin="round" d="
			M133.436-216.181c-8.411-4.856-11.292-15.611-6.437-24.022c1.544-2.673,3.763-4.893,6.437-6.436"/>
		
			<path id="path3776-7-3" sodipodi:end="7.3303829" sodipodi:type="arc" sodipodi:ry="6.5454545" sodipodi:rx="6.5454545" sodipodi:cy="20.181818" sodipodi:cx="42.363636" sodipodi:open="true" sodipodi:start="5.2359878" fill="none" stroke="#FFFFFF" stroke-width="2" stroke-linecap="round" stroke-linejoin="round" d="
			M141.656-218.852c-6.728-3.885-9.034-12.489-5.149-19.217c1.235-2.139,3.011-3.914,5.149-5.149"/>
	</g>
</g>
<text transform="matrix(1 0 0 1 66.6318 342.5)" fill="#FFFFFF" font-family="'nevis-Bold'" font-size="48">radikker</text>
</svg>
